/* XPM */
static char *_a49503469d4479eddd9860f036e68b8W0w6QjH2eW6YfVBZ[] = {
/* columns rows colors chars-per-pixel */
"48 48 215 2 ",
"   c #7B3600",
".  c #7E3800",
"X  c #7F400B",
"o  c #813B01",
"O  c #894404",
"+  c #924C08",
"@  c #99560A",
"#  c #8A4A12",
"$  c #95571C",
"%  c #A5630E",
"&  c #A76513",
"*  c #A86817",
"=  c #A4661F",
"-  c #AA6B1A",
";  c #AF711F",
":  c #B2731C",
">  c #935926",
",  c #99602F",
"<  c #9A6538",
"1  c #A96C23",
"2  c #A66B2D",
"3  c #AD7225",
"4  c #B57923",
"5  c #B57A28",
"6  c #AB7435",
"7  c #A87544",
"8  c #A57348",
"9  c #A87A53",
"0  c #BC842D",
"q  c #BB8534",
"w  c #B7813E",
"e  c #C38629",
"r  c #C58629",
"t  c #CA8C2C",
"y  c #CE922E",
"u  c #C38D33",
"i  c #C28E3A",
"p  c #C5913C",
"a  c #C8973E",
"s  c #D49A35",
"d  c #D59E3A",
"f  c #DCA337",
"g  c #D7A03B",
"h  c #DBA53D",
"j  c #DEA93E",
"k  c #E2AA3C",
"l  c #B98542",
"z  c #BE8C44",
"x  c #BC8A4D",
"c  c #BF9243",
"v  c #BF9648",
"b  c #BF8F52",
"n  c #B68758",
"m  c #BF9156",
"M  c #B28965",
"N  c #B88B62",
"B  c #B99372",
"V  c #BE9979",
"C  c #C29542",
"Z  c #CB9B43",
"A  c #C3944B",
"S  c #C99C53",
"D  c #C2945A",
"F  c #CFA146",
"G  c #CEA14C",
"H  c #D1A345",
"J  c #DBA740",
"K  c #DEAA42",
"L  c #D2A549",
"P  c #D6AA4E",
"I  c #DCAD4C",
"U  c #CBA857",
"Y  c #D4A955",
"T  c #DCB454",
"R  c #DFBA56",
"E  c #D4B15E",
"W  c #DBB45C",
"Q  c #DEBA5C",
"!  c #E1AE45",
"~  c #E2AD4B",
"^  c #E2B147",
"/  c #E4B44A",
"(  c #E8B74F",
")  c #E7B84D",
"_  c #E8BA4E",
"`  c #E0AD52",
"'  c #E4B453",
"]  c #E6B953",
"[  c #EABD53",
"{  c #E4B65C",
"}  c #E3BC5C",
"|  c #E8B95A",
" . c #C59A67",
".. c #CBA267",
"X. c #D2A660",
"o. c #D9B661",
"O. c #DCBA64",
"+. c #DEBB6B",
"@. c #CCA575",
"#. c #CFAA7D",
"$. c #DEBA74",
"%. c #D5B27C",
"&. c #DEBB7B",
"*. c #E3BC65",
"=. c #E9BC65",
"-. c #E3BA68",
";. c #E5BF74",
":. c #E2BE7C",
">. c #ECC057",
",. c #E4C15D",
"<. c #EEC25A",
"1. c #EEC85E",
"2. c #F1C65E",
"3. c #F2C85F",
"4. c #E4C364",
"5. c #ECC464",
"6. c #EDC863",
"7. c #E4C46A",
"8. c #E9C46B",
"9. c #E7C969",
"0. c #ECCB6C",
"q. c #F2C760",
"w. c #F3C963",
"e. c #F2CC6B",
"r. c #F8CF68",
"t. c #F6D16E",
"y. c #E4C374",
"u. c #EAC777",
"i. c #E5CB74",
"p. c #E5C37B",
"a. c #E5C87C",
"s. c #F2CD76",
"d. c #ECD276",
"f. c #EBD17B",
"g. c #F5D273",
"h. c #F6D47C",
"j. c #F8D578",
"k. c #F5DA7D",
"l. c #CEAA82",
"z. c #C5A68A",
"x. c #D0AD81",
"c. c #D9B889",
"v. c #CAAE96",
"b. c #CCB097",
"n. c #D6B591",
"m. c #D6BA9B",
"M. c #D9BE9A",
"N. c #D3BBA7",
"B. c #DFC087",
"V. c #DBC09E",
"C. c #E5C483",
"Z. c #E9C881",
"A. c #E5C688",
"S. c #E5CA8B",
"D. c #ECD285",
"F. c #F5D986",
"G. c #FBDB82",
"H. c #E3C895",
"J. c #E4CC9E",
"K. c #EDD599",
"L. c #F7DB99",
"P. c #F9E582",
"I. c #F5E288",
"U. c #FCEC8D",
"Y. c #FFF08D",
"T. c #F9E493",
"R. c #FBEC94",
"E. c #FAE69C",
"W. c #FAEB9A",
"Q. c #FEF097",
"!. c #FEF09A",
"~. c #DCC4A9",
"^. c #DCC8B4",
"/. c #E2CBA4",
"(. c #E8CEA2",
"). c #E2CBAC",
"_. c #EBD6A3",
"`. c #EEDAA4",
"'. c #E7D2AD",
"]. c #E9D6AA",
"[. c #E2CCB0",
"{. c #E5D1B5",
"}. c #E6D4BC",
"|. c #EBD9B8",
" X c #F4E2A3",
".X c #FBE6A7",
"XX c #F9EAA2",
"oX c #F4E2AA",
"OX c #F6E8B8",
"+X c #DFD0C4",
"@X c #EBDBC2",
"#X c #E8DACA",
"$X c #EADFD7",
"%X c #EDE0CF",
"&X c #F3E6C2",
"*X c #FCF4CE",
"=X c #EDE1D3",
"-X c #ECE1D8",
";X c #F5EAD4",
":X c #F5EAD5",
">X c #F3EADE",
",X c #F9F1DB",
"<X c #F3EBE6",
"1X c #F5EDE5",
"2X c #FAF3E3",
"3X c #F8F3EA",
"4X c #FBF5EB",
"5X c #FCF8EF",
"6X c #F9F5F2",
"7X c #FCF9F6",
"8X c #FCFAF6",
"9X c #FDFAF8",
"0X c #FEFDFD",
"qX c #FEFEFE",
"wX c white",
/* pixels */
"wXwXwXwXwXwXwXwXwXwXwXwXwXwXwXwXwXwXwXwXwX7X5X4X4X4X6X7XwXwXwXwXwXwXwXwXwXwXwXwXwXwXwXwXwXwXwXwX",
"wXwXwXwXwXwXwXwXwXwXwXwXwXwXwXwX7X4X*XOXXXW.R.I.I.D.D.D.K.|.;X4XwXwXwXwXwXwXwXwXwXwXwXwXwXwXwXwX",
"wXwXwXwXwXwXwXwXwXwXwXwXwXwX2XOXXXU.U.Y.R.U.I.k.d.d.9.,.{ ' W $.(.=X7XwXwXwXwXwXwXwXwXwXwXwXwXwX",
"wXwXwXwXwXwXwXwXwXwXwX9X;XoXR.U.U.I.i.E G v c z c q C C C Z Z d Z Y H.%X9XwXwXwXwXwXwXwXwXwXwXwX",
"wXwXwXwXwXwXwXwXwXwX>XoXT.U.U.u.U q a I ] <.3.2.1.1.<.| T P Z p u r i X./.,XwXwXwXwXwXwXwXwXwXwX",
"wXwXwXwXwXwXwXwX9X&XT.U.U.i.U H ] r.r.e.e.w.w.w.w.3.3.3.3.3.w.<.I u r e i %.@XwXwXwXwXwXwXwXwXwX",
"wXwXwXwXwXwXwX7XoXU.R.G.o.Y =.r.t.w.w.w.3.w.3.w.w.2.3.3.<.3.<.3.q.1.I q 5 r E [.7XwXwXwXwXwXwXwX",
"wXwXwXwXwXwX7XoXU.R.d.E 0.t.r.w.w.w.w.w.3.w.3.3.3.2.3.<.3.3.<.<.2.<.2.<.Z 4 4 S ).7XwXwXwXwXwXwX",
"wXwXwXwXwX9XoXR.R.i.W t.r.w.w.w.w.w.q.q.2.w.2.2.2.2.2.<.<.<.2.<.<.<.<.<.w.L 4 4 A ).wXwXwXwXwXwX",
"wXwXwXwXwXOXW.R.i.O.t.w.w.w.w.w.w.q.q.q.2.2.2.2.2.<.2.2.3.<.2.<.<.<.<.[ <.w.P 3 : z }.wXwXwXwXwX",
"wXwXwXwX,XR.Q.f.O.r.w.w.w.w.w.q.q.q.q.3.2.2.2.2.2.3.<.<.2.<.| 2.<.<.[ <.[ [ w.P : : A ;XwXwXwXwX",
"wXwXwX5X X!.F.o.t.w.e.w.q.q.w.w.q.w.3.q.2.2.2.2.<.<.<.2.<.<.<.<.[ <.<.>.[ <.[ w.a - - #.7XwXwXwX",
"wXwXwXOXW.R.o.e.w.w.w.w.w.w.w.3.3.2.2.2.2.2.[ 2.2.2.2.2.[ 2.[ [ >.>.>.[ >.[ [ >.5.5 - 3 }.wXwXwX",
"wXwX4XE.!.i.*.e.w.w.2.3.w.2.2.3.3.2.L.=.2.2.2.2.[ 3.| [ 2.[ [ 2.| >.>.>.>.>.[ [ >.T - *  .wXwXwX",
"wXwXOXW.R.o.e.w.w.w.w.3.q.3.3.2.2.<.L.| 2.2.| 2.2.[ 2.[ 2.s.| [ >.[ >.>._ >._ [ _ 1.q * - #XwXwX",
"wX7XE.Q.f.4.r.w.w.w.3.3.3.3.2.2.<.2.L.=.2.2.3.2.[ 2.w.s.G.G.` [ >.[ [ [ >._ [ [ [ [ T - & #.wXwX",
"wX,XR.Q.O.e.q.q.2.2.2.2.2.2.w.| j.F.u.F.L.=.[ 2.[ t.s.G.h.h.~ [ [ [ >._ >.) >.) [ >.,.0 & w 7XwX",
"wXOXR.I.O.r.q.q.w.2.2.2.2.2.2.F..X` [ | G.=.| [ | [ [ g.j.t.~ [ >.[ _ [ ) >.) >.) ) >.a * - #XwX",
"wXE.Q.f.-.w.q.3.2.2.2.2.2.2.t..XZ.~ 2.[ w.| ( [ 2.| 2.r.e.e.! ( _ [ [ ) >.[ ) ) _ _ ) T - & M.wX",
"6XR.R.7.0.w.2.2.2.2.2.2.2.2.G.T.h.( [ 2.[ | [ 2.[ [ [ w.q.[ k ( [ [ [ [ ) ) [ ) _ _ _ O.3 & @.wX",
"4XW.R.+.e.2.2.2.2.2.2.2.2.| j.G.G.=.' [ | 2.2.[ >.>.>.[ | [ k [ [ [ _ [ _ _ _ _ _ _ ) 8.q & m wX",
",XR.U.O.e.2.2.2.2.2.[ 2.2.2.r.j.j.j.q.' [ [ | [ [ [ [ _ / ! k [ _ [ _ _ _ _ _ _ _ / / 8.z & l wX",
",XR.U.O.r.2.2.2.2.| 2.[ 2.[ | r.w.r.q.5.( ( [ [ [ [ [ / ! K k ( [ _ _ _ _ _ _ ) / ) ^ 8.A - l 7X",
"1XW.U.+.w.2.2.2.2.2.2.2.[ 2.2.[ 2.[ [ [ ( ! [ [ >.[ [ ! h h k [ _ _ _ ) _ _ / ) / / ^ 0.S : z 7X",
"4XW.U.O.e.<.1.2.<.<.<.<.<.[ 2.[ >.>._ / ) K j >.[ [ [ h g g j _ _ _ ) _ ) ) / / / ^ ! u.U q b 6X",
"3XXXU.9.9.2.2.<.<.<.<.<.[ <.[ [ >.>.>.^ ! j f _ [ [ [ g s s k _ _ ) _ / / / / / / ! ! f.P L m -X",
">X XU.i.8.2.[ <.[ <.[ <.2.2./ ' >.[ >.) h g j >.) [ [ g y y j _ ) ) ) / / / / ^ ! ! j S.T R m #X",
">X].U.k.7.2.2.>.<.<.<.<.[ | ! h >.[ >.) g s ) _ [ ) _ d y t f _ [ / / / / ^ ^ ^ ! ! T A.,.R M #X",
"3XH.R.I.7.6.[ <.>.>.>.[ >.>.^ s ^ [ / g s ^ _ _ [ _ [ s t r s ) / / / ^ / / ! / ! ! *.y.,.P n >X",
"wXn.XXP.0.0.2.[ >.>.[ >.| >.) h h g f K ) [ _ >.) ) [ s t r y ) / / / I K ! ! ! K K Z.*.4.A n 7X",
"wXn._.P.0.7.2.[ | >.>.>.>.>.[ >.[ s j >.[ [ [ _ _ / h t e e t h / / / / / K K K J ' Z.4.Q 6 B wX",
"wX}.@.W.0.*.e.[ >.>.>._ >._ >._ [ s k [ _ _ ) _ _ / K h K K K g K / K ! ! K K K J u.4.9.S $ ~.wX",
"wX6Xx ].0.W 4.w.[ >.>._ >.>.>.) [ ! / _ _ _ ) ) ) ) ) / / / / / / ! ! ! K K K h { p.4.4.3 > 4XwX",
"wXwXl. .K.T P 0.>.[ >._ _ _ >._ _ [ _ _ _ _ ) ) ) ) / ^ / / K ! K ! K K K K J I Z.Q 9.C O B wXwX",
"wXwX<X2 /.O.Z I t.[ _ [ >.) ) _ _ _ _ _ _ ) ) ) / / / ^ / ! ! ! ! K K K K J J a.+.i.O.1 # -XwXwX",
"wXwXwXl.2 |.G i P 0.>._ ) ) >.) _ _ ) ) ) ) / / / / ^ ^ ^ ! ! ! K K K K J J y.+.i.a.x O B wXwXwX",
"wXwXwX6X2 9 |.i 0 L 0.>.) >.) ) _ ) ) ) ) / / ^ ^ ^ ! ! ! ! K K K K K J J p.$.a.S...$ > <XwXwXwX",
"wXwXwXwX}.+ N {.q 0 H 6.>.) ) ) _ _ ) / / ^ / I / ^ ! ! ! ! ! K K K h I p.$.S.S.%.< o N.wXwXwXwX",
"wXwXwXwXwXl.O n |.U u F 4.6.>./ ) / / / / / ! / ! ! ! K K K K h g J -.p.$.H.H.c.7 . B wXwXwXwXwX",
"wXwXwXwXwXwXN o 6 }.S.T R Q 9.6._ / ^ ^ ^ ^ / ! ! ! ! K J h h I -.p.&.c.(.J.M.8   n 9XwXwXwXwXwX",
"wXwXwXwXwXwX7XN . $ m.OXD.,.R O.y.u.*.' / ! ! k K h h K I { ;.C.&.c.J./.}.N.>   8 6X0XwX0XwXwXwX",
"wXwXwXwXwXwXwX7XB o @ b {.OXD.,.R Q O.p.C.p.p.p.y.;.p.p.:.&.c.B./.'.&X@XV X   M 6XwXwX0XwXwXwXwX",
"wXwXwXwXwXwXwXwXwXb.= % - D ).&X`.f.9.} O.+.$.$.$.&.&.B.S.J.'.|.;X=Xb.,   X z.0XwXwX0XwXwXwXwXwX",
"wXwXwXwXwXwXwXwXwXwX=Xb & % - w l.{.&X&XoX`._.K._.].|.&X%X;X=X^.B > .   < +XwXwXwXwXwX0XwXwXwXwX",
"wXwXwXwXwXwXwXwXwXwXwXwX~.l & % % * 5 b #.m.[.{.}.{.[.V.x.D 2 O . . > v.7XwXwXwXwXwXwXwXwXwXwXwX",
"wXwXwXwXwXwXwXwXwXwXwXwXwX7X).D 3 & & & & & & * - * & & % % @ # 8 N.6XwXwXwXwXwXwXwXwXwXwXwXwXwX",
"wXwXwXwXwXwXwXwXwXwXwXwXwXwXwXwX>X~...l 3 1 - * - - ; 3 l  .m.$XwXwXwXwXwXwXwXwXwXwXwXwXwXwXwXwX",
"wXwXwXwXwXwXwXwXwXwXwXwXwXwXwXwXwXwXwXwX1X=X@X{.{.}.=X1X9XwXwXwXwXwXwXwXwXwXwXwXwXwXwXwXwXwXwXwX"
};
