/* XPM */
static char *ca57102edbe2400ee9036d9a12dbbedaY4LzRthPNqKU9Og7[] = {
/* columns rows colors chars-per-pixel */
"48 48 236 2 ",
"   c #00320B",
".  c #053A14",
"X  c #143E29",
"o  c #6E1E1B",
"O  c #573A23",
"+  c #703327",
"@  c #054515",
"#  c #084A19",
"$  c #124D1E",
"%  c #04541D",
"&  c #0A531D",
"*  c #0B5B1D",
"=  c #0D621F",
"-  c #326A06",
";  c #2D740A",
":  c #0C5521",
">  c #0C5D23",
",  c #145027",
"<  c #165A36",
"1  c #2A5526",
"2  c #0D6325",
"3  c #0D6529",
"4  c #0C6929",
"5  c #106B26",
"6  c #136528",
"7  c #126C2A",
"8  c #0E742A",
"9  c #13732B",
"0  c #167629",
"q  c #176B36",
"w  c #157332",
"e  c #167B33",
"r  c #197C33",
"t  c #1A7936",
"y  c #3D683B",
"u  c #4E6135",
"i  c #706C3D",
"p  c #255A4B",
"a  c #1C6C43",
"s  c #2A6F4A",
"d  c #286959",
"f  c #31786E",
"g  c #507543",
"h  c #706746",
"j  c #84231F",
"k  c #892A26",
"l  c #8E342E",
"z  c #96332D",
"x  c #A83B35",
"c  c #B43F39",
"v  c #8F4637",
"b  c #AA413A",
"n  c #B5433D",
"m  c #BB443D",
"M  c #C2473F",
"N  c #945249",
"B  c #B74A44",
"V  c #AE504B",
"C  c #B65149",
"Z  c #976754",
"A  c #AB635D",
"S  c #AF5E60",
"D  c #986B63",
"F  c #A8796B",
"G  c #AD7A73",
"H  c #C44C46",
"J  c #C67061",
"K  c #3C8209",
"L  c #118231",
"P  c #1B833B",
"I  c #1A8538",
"U  c #24873A",
"Y  c #2D973C",
"T  c #568C08",
"R  c #418914",
"E  c #5E8116",
"W  c #489314",
"Q  c #658917",
"!  c #6E921B",
"~  c #74991B",
"^  c #5BA41D",
"/  c #548C26",
"(  c #789D24",
")  c #73992F",
"_  c #5DA921",
"`  c #65AB26",
"'  c #6BB22B",
"]  c #76B82C",
"[  c #7AB933",
"{  c #1E8F42",
"}  c #2B8F4F",
"|  c #2B8B59",
" . c #399278",
".. c #488454",
"X. c #44996B",
"o. c #438778",
"O. c #67846A",
"+. c #4DA27A",
"@. c #869938",
"#. c #81BC2E",
"$. c #87BD34",
"%. c #9E9847",
"&. c #A19C4C",
"*. c #A5A557",
"=. c #8E8672",
"-. c #868D73",
";. c #928674",
":. c #938778",
">. c #958979",
",. c #889276",
"<. c #B48971",
"1. c #92BF6A",
"2. c #CA8672",
"3. c #C2AA7D",
"4. c #97C449",
"5. c #A7C158",
"6. c #91C76A",
"7. c #B3D07B",
"8. c #3E8E89",
"9. c #4C988C",
"0. c #468B9A",
"q. c #54A290",
"w. c #6DAC91",
"e. c #5398AF",
"r. c #54A5AD",
"t. c #57A5BA",
"y. c #6EAEB4",
"u. c #5BA6C6",
"i. c #66A8C7",
"p. c #75ADCD",
"a. c #72B1C4",
"s. c #64AED8",
"d. c #65B1D9",
"f. c #7CBBD9",
"g. c #65B3E5",
"h. c #6AB5E5",
"j. c #6BB6E9",
"k. c #6AB8E9",
"l. c #71BAE7",
"z. c #74BCE9",
"x. c #79BEEA",
"c. c #6DBBF1",
"v. c #7EC3E7",
"b. c #7CC1EB",
"n. c #7AC1F2",
"m. c #B4918D",
"M. c #89AF9E",
"N. c #9895AE",
"B. c #BBB8AB",
"V. c #C19B88",
"C. c #C7A88B",
"Z. c #C8AA95",
"A. c #D5AC95",
"S. c #CBB296",
"D. c #D5B79B",
"F. c #CBBAA9",
"G. c #D7BCA2",
"H. c #CCB9B1",
"J. c #E1BBA8",
"K. c #8AC194",
"L. c #ADC587",
"P. c #88C9A8",
"I. c #B7C8AF",
"U. c #D0D59A",
"Y. c #DCC2A5",
"T. c #DCC3AA",
"R. c #DACAAB",
"E. c #CCCCB1",
"W. c #DAC7B4",
"Q. c #E1C7AE",
"!. c #E4C6B4",
"~. c #E4CCB4",
"^. c #E5D3BC",
"/. c #E9D4BD",
"(. c #DFE2B4",
"). c #87A4C9",
"_. c #86C4DA",
"`. c #B6C8C9",
"'. c #B1C8CF",
"]. c #8CC7E7",
"[. c #83C5EC",
"{. c #86C9ED",
"}. c #8DCCEF",
"|. c #98CCED",
" X c #96D1ED",
".X c #8ECDF2",
"XX c #88CAF4",
"oX c #91CFF4",
"OX c #90CFF8",
"+X c #8DD0F7",
"@X c #91D1F5",
"#X c #9BD4F1",
"$X c #97D4F9",
"%X c #B5DCEE",
"&X c #AAD9F2",
"*X c #ADD9F0",
"=X c #B6E0F1",
"-X c #BAE4F4",
";X c #C9CEC9",
":X c #D8CEC6",
">X c #CCD1CB",
",X c #D9D6CA",
"<X c #C7D2D5",
"1X c #CDD4D1",
"2X c #D6D9D4",
"3X c #E4D5C6",
"4X c #EAD7C1",
"5X c #EBDAC5",
"6X c #EDDDCA",
"7X c #F3DECC",
"8X c #E6DED2",
"9X c #DAE6DE",
"0X c #ECE1CE",
"qX c #F2E2CF",
"wX c #E5E1D6",
"eX c #EAE3D4",
"rX c #F2E3D1",
"tX c #F7EBDB",
"yX c #F4EBDC",
"uX c #C8E7F5",
"iX c #CBEAF5",
"pX c #D5EBF6",
"aX c #DCF4FC",
"sX c #E8E9E7",
"dX c #F8EFE2",
"fX c #F6F0E3",
"gX c #FBF2E4",
"hX c #FBF6EA",
"jX c #FDFAEE",
"kX c #E4F4FB",
"lX c #E7F8FD",
"zX c #EAF9FD",
"xX c #F7F5F1",
"cX c #FEFDF4",
"vX c #F3FAFE",
"bX c #FFFFFE",
/* pixels */
"}.}.}.}.}.}.}.}.}.}.}.}.}.}.}.}.}.}.}.}.}.}.}.}.}.}.}.}.}.}.}.}.}.}.}.}.}.}.}.}.}.}.}.}.}.}.}. X",
"}.}.}.}.}.}.}.}.}.}.}.}.}.}.}.}.}.}.}.}.}.}.}.}.}.}.}.}.}.}.}.}.}.}.}.}.}.}.}.}.}.}.}.}.}.}.}.}.",
"}.}.}.}.}.}.}.}.}.}.}.}.}.}.}.}.}.}.}.}.}.}.}.}.}.}.}.}.}.}.}.}.}.}.}.}.}.}.}.}.}.}.}.}.}.}.}.}.",
"}.}.}.}.}.}.}.oX}.}.}.}.}.}.}.}.oX}.}.}..X}.}.}.}.}.}.}.}.}.}.}.}.}.}.}.}.}.}.}.}.}.}. X}.}.}.}.",
"}.}.}.}.}.}.}.}.}.}.}.}.}.}.}.}.}.}.}..X}.}.}.}.}.}.}.}.}.}.}.}.}.}.}.}.}.}.}.}.}.}.}.}.}.}.}.}.",
"}.}.}.}.}.}.}.}.}.}.}.}.}..X}.}.}.}.}..X{.}.}.}.}.}.}.}.}.}.}.}.}.}.}.{.}.#X#X}.{.}.}.}.}.}.}.}.",
"}.}.}.}.}.}.}.}.}.}.}.}.}.}.}.}.}.#X&XuX&XoX}.}.}.}.}.}.}.}.}.}.}.{.&X-XaXaXaXiX&X{.}.}.}.}.}.}.",
"}.}.}.}.}.}.}.}.}.}.}.}.}.}.}.&XpXvXvXbXbXpX#X}.}.}.}.}.}.}..X X}.{.=XzXzXaXlXzXlX&X{.}.}.}.}.}.",
"}.}.}.}.}.}.}.}.}.}.}.}.}.}.{.iXbXbXbXbXbXbXkXx.l.x..X.X}..X.X.X}.}.{.*X%XpXuX-X&X}.}.}.}.}.}.}.",
"}.}.}.}.}.}.}.}.}.}.}.}.}.}.}. XuXkXbXvXkXuX|.j.h.g.x.].[.].}.}.}.}.}.}.{.].{.}.}.}.}.}.}.}.}.}.",
"}.}.}.}.}.}.}.}.}.}.}.}.}.}.}.{.x.j.].x.j.s.s.j.h.h.h.h.h.h.z.}.}.}.}. X}.}.}.}.}.}.}.}.}.}.}.}.",
"}.}.}.}.}.}.}.+X}.}.}.}.{.b.l.h.g.g.g.g.h.h.h.h.h.h.h.h.h.g.g.x.#X#X}.}.}.}.}.}.}.}.}.}.}.}.}.}.",
"}.}.}.}.}.}.{.XX X{.b.b.k.g.g.h.j.h.h.h.h.h.h.h.h.j.g.g.h.[.*X*XvXvXkX%X[..X}.}.}.}.}.}.}.}.}.}.",
"}.}.}..X{.#X=X=XlX-X&Xb.g.k.h.g.j.h.h.h.h.h.h.h.h.j.g.[.kXzXbXbXbXbX9XX.+.[.x.}.}.}.}.}.}.}.}.}.",
"}. X}. XaXkXvXaXaXaXaXiXv.g.d.k.h.g.h.h.h.h.h.h.h.h.g.&XbXbXbXbXbXbXw.L t M.z.x.}.}.}.}.}.}.}.}.",
"}.}.}. XpXzXlXlXlXlXzXzXiXv.g.k.t.9.h.j.h.h.h.h.h.j.g.l.pXbXbXbXbXI.I q 6 | l.h.{.}.}.}.}.}.}.}.",
"}.}.}.}. XuXuXpXpXpX-X#Xv.l.k.d.} e 0.j.h.h.h.h.h.h.N.s.l.*X*XvXvX+.I 5 0 w u.j.{.}.}.}.}.}.}.}.",
"}.}.}.}.].}.l.[.b.x.d.g.g.h.l. .9 5 q s.l.h.h.h.g.m.B m.h.g.g.x.x. .8 L r = e.n.}.}.}.}.}.}.}.}.",
"}.}.}.}.}.}.z.d.r.g.j.h.h.h.s.{ e 5 w t.k.h.h.l.N.C m.C N.c.h.s.X.U 0 U P = 0.n.l.l.h.j.x.}.}.}.",
"}.}.}.}.}.}.n. .e e.k.h.h.k.i.P 9 P 2 8.k.h.k.).V m.hXZ.B N.j.q.} { r * : * d h.h.h.h.h.g.z.}.}.",
"}.}.}.}.}..Xy.L 5 a g.k.k.t.} I w P 2 f c.k.).S F eX2XeXm.B ).9.0 I 5 = * 6 2 d h.h.h.h.h.h.}..X",
"}.}.}.}..XOX+.L 5 9 t.l.l.X.Y U 5 * : q t.h.S N qX6X9X8XxXG S i.{ 0 5 e : 7 : p h.h.j.h.h.h.].}.",
"}.}.}.}.}.f.| 0 { 3 0.c.k.o.0 7 5 * 6 4 < D l W.tXwX2X8XcXxXS A } I 3 t 2 & # < d.s.s.h.h.j.}.}.",
"}.}.}.}.f.X.U w 7 *  .c.z.t.{ 9 w 6 > % + l m.rXfXyXeXeXcXbXwXV Z 5 w t > 2 > q s.}  .g.g.[.}.}.",
"}.}.}.[.t.U I 5 * : q 0.s.| I 4 w 4 > N k F G.6XgXhXjXcXcXcXcX:XV i t w & # # d  .0 q u.x.}.}.}.",
"}.}.{.k.j.| 0 0 3 3 * d X.I 2 9 { 3 h H J m.T.3XtXgXhXjXhXcXcXbXH.b u 3 & @ $ < r w 4 q.OX}.}.}.",
"}.}.l.k.u.} r 7 w : % s } I 8 4 4 h C D b J D.~.7XtXgXgXhXhXcXcXbXm.x s % @ # q P r 9 o.$XoX}.}.",
" Xb.k.i.} 0 2 U 4 > : d | 8 P 4 u B F cXV.n 2.G.~.7XtXgXhXhXjXcXcXcXG z 1 > 6 U I 5 & q a.oX}.}.",
"}.z.k.r.I 9 7 w : @ O N v v O + V N hXcXbXG B 2.V.A.G.J.!.3X3X8X6X6X3XN v , . 0 9 7 2 * o.oX}.}.",
"}.k.k.t.I r w 2 3 1 b M B m z C v :XcXcXcXxXA c + o + k x x c B m n B c k + # P 9 w > # o.@X}.}.",
"}.b.k.u.7 2 6 t 1 b m m n l B l Z.dXhXcXcXbXsXN c k x m B M c H c m m M x j i 8 7 t * # 9.@X}.}.",
"}.}.n.9.7 2 3 1 z M m x l x l <.~./.eXtXgXgXxX:Xl x z c c M c c c m m m M z j u 4 3 # @ s ].}.}.",
"}.}.@Xo.t w : O x k k o k z Z Q.5XeXyXhXhXhXxXcXH.k V C.A.A.A.D.J.Q.J.!.!.!.F l y 5 & : , _.oX}.",
"}.}.@Xy.q 3 : , D Z.Z.V.2.F D.~.C.C.C.C.C.C.C.^.~.<.<.D.Q.~.0XrXtXhXjXcXcXcXtXg 1 # @ @ . p.@X}.",
"}.+X_.s : @ : # ,.tX(.W.Q.3.Q.5XS.S.S.S.Z.C.C.^.Q.C.G.D.F.W.:XgXyX8XwXyXcXcXyX..% @ . . , f..X}.",
"}.+Xa.2 : # #   ,.rX>X;XF.C.~.qXY.S.S.D.F.D.G.0X~.S.D.Q.E.;X,XgXwX2X1X8XcXcXfXy % & . . $ f..X}.",
"}.}..X .& $ #   -.yX2X;XG.D./.qXQ.Y.I.1X9XT.Y.rX/.A.Y.Q.W.1X,XfXwX2X1XwXcXcXdXy # . . ,   p..X.X",
"}.}.+Xe.d < . X ,.yX1X;XB.D./.qX0X~.;X2X2X^.R.rX/.D.Q.~.1X1X;XgX8X<X;X,XcXcXdXg .   . .   p.oX}.",
"}.}.}.x.j.0.0.e.C.yX1X'.B.Y.5XqX5X~.,X3X,X4X4XrX/.Q.Q.^.1X`.`.gXwX<X'.1XcXcXfXg $ , . , d )..X}.",
"}.}.}.}.x.z.c.i.3.yX`.`.B.Q.qXqX0X^./.6X0X5X5XrX/.Q.~.qX`.`.I.gX8XL.6.E.vXbXgX) T h O.y.OX.X}.}.",
"}.}.}.}.}.{.+XK.$.5.I.I.E.Q.qXrX6X4X6X6X0X3X5XyX/.R.R.U.I.6.$.L.7.] #.$.U.7.(.) T T T ! _.XX.X.X",
"}.}.}.}.}.+XP.] ' ] $.#.5.~.rXqX5X4X6X0X0X5X4XyX7XR.5.#.#.] [ _ ` ' ] ' ] ] 4./ ; K T T w.+X}.}.",
"}.}.{.+X}.w./ _ ` ` ` ] $.R.qXqX6X^.3X5X3X^.5XrXqXU.#.] ' ' K K ^ ^ ^ ` ` ] #.- - - - - ..$X}.}.",
"}.}.XX{.6.; K W R ^ ^ _ ^ L.7X5X5X6X6X6X/.Q.R.7X4X7._ ^ ^ W ; K W R W ^ ^ ^ ^ / ` ` ' [ [ P..X}.",
"}.}.}._.) E E E Q Q Q ! ~ @.*.%.&.*.*.*.*.&.%.&.&.) ! Q Q E E E E E Q Q ! ! ~ ! ( ( ( ( ( 1.+XXX",
"}.}. X].>.:.>.>.>.>.>.:.:.;.=.=.=.=.,.;.=.=.:.=.F =.>.>.>.>.>.>.>.>.>.>.>.>.:.:.>.:.:.;.;.).XX.X",
"}.}.}.}.+X+X+X+X+X+X.XOX+X.X.X+X+X+XOXXX+X+X.X+X+X.X+X+X+X+X+X+X+X+X+X+X+X+X+X+X+X+X+X+XOX.X.X.X",
"}.}.}.}.}.}.}.}..X.X}..X.X}.}..X}.}..X}.}..X}..X.X.X.XXX}.}.}.}.}.}.}.}.}.}.}.}.}.}.}.}..X}.}.}."
};
