/* XPM */
static char *_20148c7fbe14e3199875659c00cb230lJru1H81AJkyA0kr[] = {
/* columns rows colors chars-per-pixel */
"48 48 27 1 ",
"  c #548725",
". c #578A27",
"X c #5C8E28",
"o c #5F9029",
"O c #64942B",
"+ c #68972C",
"@ c #6C9A2D",
"# c #719E2E",
"$ c #75A12F",
"% c #76A230",
"& c #7BA631",
"* c #7FA832",
"= c #83AC33",
"- c #88AF34",
"; c #87B035",
": c #8CB336",
"> c #8FB538",
", c #91B737",
"< c #92B837",
"1 c #91B738",
"2 c #95BA39",
"3 c #99BE3A",
"4 c #9DC23B",
"5 c #A2C53C",
"6 c #A6C83E",
"7 c #A9CB3F",
"8 c #A8CA40",
/* pixels */
"455::-4536554,-==:53356:&=<2342344<;;:;,44345324",
":33,$+:-23264#$$&,76552#.O$=-==2*:@+*&+$:=<::=-4",
"*==&$&=&=-=54=##-475<-&$&====&&=*=&&**$$&$**&$*-",
"&=-%$$==&&=-======,<$&=&==-==&&&==&=:*=&==**&*2:",
"-<2+.===#=#$&$,-,,:&o&&=$%$%=@==:=*X$*>:4#+X$274",
"355$@::,:,=#$-<4325:==$::2=22-,24;:#@33452=$:465",
"555335656542234665554423765555554442256555453445",
"5655455422244435533535665522223552<44433<2645455",
"38643654--3664562=355556,==@&-237&=422:=*=>=4;55",
"535>22-2==275322-=,36253---%%&=22->==*=***&%-&34",
",<2&-=$==&$-=====%#,1=35,52-&#=:,25:=*,=,;;4<=@*",
"343====,2,-=#521:&=-=:645554=-354674,=5<42456>->",
"655422335353365332334576845435444554424444466465",
"545555562-223562254565221353553<2224445554,:2655",
"35642645:%&-:5323:3:53=%=155483**:=2>2>5<;#o:455",
">2652,2,-&%-=:2=-=:===-=&=3312>*$=&==;===*=&&-62",
"&=,:=$=*&%%&&$&==%&&$$=,&->=--&&&--==&=$&&&=&==&",
"&=@@=&&&*%@O+&*==&#==#=3,52-&#-:<25-==<=,--3<-$&",
",4=====>2,;&$542-=-==-224555-;355674-=4,43556545",
"56562,344452465433225686555445443553-24554556456",
"455554565,,2445455555542245445543235555553255555",
"--:,4544;@oO&442335<3,#O$24445<-%=:33524::&&2255",
"=&=-222>;&$#&;<*--,==#@#*=<43<;*&--,=:;=&=&&&=52",
"=:,44:;===,<,*=<52:,&&==:2::-=&&%:56===*$$$&&=:=",
"264675-+X+5544;@35322,=,4442@==&$=56>2,:=&&=#X<4",
"5555422>:>45554,554453236555354<,265454532342:45",
"565234555435544::2343453243465545552,24455456544",
":45#+=3,24562*$$$>55465$o@$$#:&2>2&#*=+=22:,4:#2",
"==-&%$-&,2266&&&:47652-#+@%=&%*;&=##=&#$==:==&=<",
"&===:==&&&&<:=$$;>64-&=$&&==-***&&&=&=$&&&==&*&=",
"&=&-522:==&&#&--2=55-#=%=-2::&&&=:%32=+%2,=%$O&&",
"--<5755652$=&,635363&&==15333&=,2426,+-2362@O &@",
"3333444442:,<355445422,44456622444552:565542,::,",
"435544445545533444444456444444444444225555445444",
"5355<==,55564<=#*>>444442$===455452*##@=5524,4:-",
"3,352=$:54,2:-=#@*:444;,$$*=&-<5465<$&#:55:4=-:=",
"===-===*-=&=&==&*>:2;:&&&&=&*=*&,542:=<45<&==242",
"2:,&+,5<3,:&$=$=<424@#;>4:,---&;,4=$$,425=&=2576",
"435:&:55544,=,,265544=24554442,465<-=55554<<<455",
"556244554<3444345545545564454,445444455444444444",
"46654545=+:554454;:555452-:-$+,5525442::-<525455",
"<65545:2&=276553<*:25442,=&&*@:4,:2=:-=*$,,24264",
"=444=<=&-=&<3==&&&&;4;<,*&==*$**&==*&&=*$&&::=54",
"*&===&&&$&&====$****-=<4=32&@**&&,<*#$**=-&:=$$=",
">;>$$&&@O@=:-5,O*&$$+:244542O=444572@X4<42254=O*",
"5542=-,22242<6532:*;:465455524444665=*4454556444",
"544444455444454444445664455445444434445554566455",
"546755572*=<<553444456<;=2544644:*:244454<::5555"
};
