/* XPM */
static char *_b8f7293fcb845ba86270af6fe158399AKklYcYuWZMKCUa9[] = {
/* columns rows colors chars-per-pixel */
"48 48 150 2 ",
"   c #000000",
".  c #080807",
"X  c #0B0B0B",
"o  c #0D1414",
"O  c #131413",
"+  c #111718",
"@  c #151C1C",
"#  c #1B1C1B",
"$  c #201F1D",
"%  c #172121",
"&  c #1B2323",
"*  c #1E2728",
"=  c #1E2A2A",
"-  c #232423",
";  c #292624",
":  c #242927",
">  c #2B2827",
",  c #202728",
"<  c #232C2C",
"1  c #2D2C2B",
"2  c #312F2C",
"3  c #34322F",
"4  c #242F30",
"5  c #263233",
"6  c #2C3435",
"7  c #293738",
"8  c #2D3B3B",
"9  c #343535",
"0  c #3C3936",
"q  c #323A3A",
"w  c #3C3C3A",
"e  c #413D3A",
"r  c #303F40",
"t  c #334243",
"y  c #3B4142",
"u  c #364748",
"i  c #37494A",
"p  c #3B4D4E",
"a  c #3C4F50",
"s  c #434443",
"d  c #494643",
"f  c #4E4A47",
"g  c #41494A",
"h  c #4B4C4C",
"j  c #524D49",
"k  c #53504E",
"l  c #59534F",
"z  c #475050",
"x  c #4D5051",
"c  c #525252",
"v  c #5A5551",
"b  c #5E5954",
"n  c #545B5B",
"m  c #5A5A5A",
"M  c #625C58",
"N  c #64605E",
"B  c #69635E",
"V  c #5B6566",
"C  c #646463",
"Z  c #6A6764",
"A  c #6F6964",
"S  c #636D6E",
"D  c #6B6B6B",
"F  c #726C66",
"G  c #756E69",
"H  c #76716E",
"J  c #7A736D",
"K  c #657070",
"L  c #6D7272",
"P  c #6E797A",
"I  c #727373",
"U  c #787470",
"Y  c #7D7973",
"T  c #7B7C7C",
"R  c #827B75",
"E  c #867F79",
"W  c #89817A",
"Q  c #758182",
"!  c #798586",
"~  c #848484",
"^  c #8E8680",
"/  c #808E8F",
"(  c #8D8D8D",
")  c #948C85",
"_  c #968F89",
"`  c #988F88",
"'  c #9D948D",
"]  c #839192",
"[  c #8C9B9B",
"{  c #949494",
"}  c #9A9694",
"|  c #9B9A9A",
" . c #A59C95",
".. c #A89E97",
"X. c #ADA49C",
"o. c #B0A59D",
"O. c #909FA0",
"+. c #92A1A2",
"@. c #9BABAC",
"#. c #9FB0B1",
"$. c #A0A0A0",
"%. c #AEA9A5",
"&. c #ABABAB",
"*. c #B6ABA3",
"=. c #B1AEAC",
"-. c #B3B0AE",
";. c #BEB3AA",
":. c #A1B3B4",
">. c #B4B4B4",
",. c #B8B4B1",
"<. c #BFBAB6",
"1. c #BBBBBB",
"2. c #C1B6AD",
"3. c #C3B8AF",
"4. c #C6BAB1",
"5. c #CABEB5",
"6. c #C2BDB9",
"7. c #CDC1B7",
"8. c #CDC2BA",
"9. c #D1C6BC",
"0. c #D5C9BF",
"q. c #C5C5C5",
"w. c #CDC9C6",
"e. c #CCCCCC",
"r. c #D6CAC1",
"t. c #DACEC5",
"y. c #DDD0C6",
"u. c #D4D4D4",
"i. c #DAD7D5",
"p. c #DCDCDC",
"a. c #E3D6CC",
"s. c #E6D9CE",
"d. c #E7DAD1",
"f. c #E9DBD0",
"g. c #EADDD2",
"h. c #EBDDD3",
"j. c #EFE1D6",
"k. c #F0E2D7",
"l. c #F1E3D8",
"z. c #F3E5DA",
"x. c #F4E6DB",
"c. c #F7E8DD",
"v. c #F9EBDF",
"b. c #E1E1E1",
"n. c #E3E3E3",
"m. c #EAEAEA",
"M. c #F0F0F0",
"N. c #F7F7F7",
"B. c #FBFBFB",
"V. c #FDFDFD",
/* pixels */
"V.V.V.V.V.V.V.V.V.V.V.V.V.V.V.V.V.B.&.i.q.( C s 9 1 1 9 h D ( 1.b.B.V.V.V.V.V.V.V.V.V.V.V.V.V.V.",
"V.V.V.V.V.V.V.V.V.V.V.V.V.B.>.N.B.( # 9 O                     X ; c ( e.M.V.V.V.V.V.V.V.V.V.V.V.",
"V.V.V.V.V.V.V.V.V.V.V.p.e.>.w T T .                                   # T m.V.V.V.V.V.V.V.V.V.V.",
"V.V.V.V.V.V.V.V.V.V.V.q.C O   .                                       X C i.V.V.V.V.V.V.V.V.V.V.",
"V.V.V.V.V.V.V.V.V.V.e.T m #                                               - { N.V.V.V.V.V.V.V.V.",
"V.V.V.V.V.V.V.V.V.p.9                                                       . T B.V.V.V.V.V.V.V.",
"V.V.V.V.V.V.V.V.N.m                                   O                       . >.V.V.V.V.V.V.V.",
"V.V.V.V.V.V.V.V.{ .                                   E G X     . #         . s ~ V.V.V.V.V.V.V.",
"V.V.V.V.V.V.V.i.-                     O ; .           ) z. .>   . F O         T m.V.V.V.V.V.V.V.",
"V.V.V.V.V.V.V.D                       R t...Z 0 $ O O ) x.x.9.l X  .k         h V.V.V.V.V.V.V.V.",
"V.V.V.V.V.V.i.#                     # 9.x.x.z.f.r.5.8.s.l.l.z.f.) 2.*.O       9 M.V.V.V.V.V.V.V.",
"V.V.V.V.V.V.|                       e g.l.z.z.z.x.x.z.z.l.l.l.z.z.j.k.^ .     9 M.V.V.V.V.V.V.V.",
"V.V.V.V.V.V.I                       j j.z.a.r.r.a.j.x.l.l.l.l.l.z.z.x.r.9 .   h B.V.V.V.V.V.V.V.",
"V.V.V.V.V.V.| m .             3 0   d j.4.0 > 2 0 M X.g.l.l.z.g.r.7.0. .~ D   ~ V.V.V.V.V.V.V.V.",
"V.V.V.V.V.V.V.i.O         .   j y.W v a.*.`  .=.=.} R *.k.z.0.R l f f 2 &.1.# u.V.V.V.V.V.V.V.V.",
"V.V.V.V.V.V.V.m.1   .   X F # 2 s.x.y.g.z.8.i.V.V.u.,.a.k.l.s.5.w.b.i.I u.i.~ V.V.V.V.V.V.V.V.V.",
"V.V.V.V.V.V.V.V.m   ; R e o.2.b r.z.z.l.k.%.b.V.V.{ { d.z.l.j.<.N.V.1.&.N.N.M.V.V.V.V.V.V.V.V.V.",
"V.V.V.V.V.V.V.V.|   9 ' s.s.x.a.f.l.l.l.z.9.-.p.m.i.r.j.z.z.g.-.m.V.1.1.B.V.V.V.V.V.V.V.V.V.V.V.",
"V.V.V.V.V.V.V.V.i.# I ( ) 2.l.z.l.l.l.l.l.l.a.9.t.d.k.z.t.t.z.t.6.i.| e.V.V.V.V.V.V.V.V.V.V.V.V.",
"V.V.V.V.V.V.V.V.V.D I B.>.N y.z.l.l.l.l.l.l.z.l.x.x.l.z.4.) j.z.j.t.Z b.V.V.V.V.V.V.V.V.V.V.V.V.",
"V.V.V.V.V.V.V.V.V.e.{ V.V.{ ' x.l.l.l.l.l.l.z.r.*.8.j.l.g.g.l.l.c...( V.V.V.V.V.V.V.V.V.V.V.V.V.",
"V.V.V.V.V.V.V.V.V.V.m.V.V.m.H 2.z.x.z.l.l.l.l.j.0.4.g.l.l.l.l.x.r.D b.V.V.V.V.V.V.V.V.V.V.V.V.V.",
"V.V.V.V.V.V.V.V.V.V.V.V.V.V.p.~ _ 5.s.k.z.x.x.x.c.c.x.x.x.x.g.;.U q.V.V.V.V.V.V.V.V.V.V.V.V.V.V.",
"V.V.V.V.V.V.V.V.V.V.V.V.V.V.V.B.q.Z w C Y ^ )  .X.X.X. .) J H | p.V.V.V.V.V.V.V.V.V.V.V.V.V.V.V.",
"V.V.V.V.V.V.V.V.V.V.V.V.V.V.V.N.( q @ < t 8 % , S ! ! P # + w e.V.V.V.V.V.V.V.V.V.V.V.V.V.V.V.V.",
"V.V.V.V.V.V.V.V.V.V.V.V.V.V.V.| < p t % i p p 8 q ] :.@.6 = < >.V.V.V.V.V.V.V.V.V.V.V.V.V.V.V.V.",
"V.V.V.V.V.V.V.V.V.V.V.V.V.V.N.h t p p % t p p a 5 n :.+., o 9 m.V.V.V.V.V.V.V.V.V.V.V.V.V.V.V.V.",
"V.V.V.V.V.V.V.V.V.V.V.V.V.V.b.q i p p * 8 p p p < P :.[ @ + , 1.V.V.V.V.V.V.V.V.V.V.V.V.V.V.V.V.",
"V.V.V.V.V.V.V.V.V.V.V.V.V.V.b.q i p p < 5 p p t 6 +.:./ X % : =.V.V.V.V.V.V.V.V.V.V.V.V.V.V.V.V.",
"V.V.V.V.V.V.V.V.V.V.V.V.V.V.M.s t p p 5 , p p 5 V :.:.Q . = 5 ( V.V.V.V.V.V.V.V.V.V.V.V.V.V.V.V.",
"V.V.V.V.V.V.V.V.V.V.V.V.V.V.B.h 8 p p 8 % p t 6 O.:.:.K X * t y b.V.V.V.V.V.V.V.V.V.V.V.V.V.V.V.",
"V.V.V.V.V.V.V.V.V.V.V.V.V.V.p.< t p p i % t < P :.#.:.n o % p < T V.V.V.V.V.V.V.V.V.V.V.V.V.V.V.",
"V.V.V.V.V.V.V.V.V.V.V.V.V.V.>.+ t a p i & @ z @.#.#.#.g % + 6 q s b.V.V.V.V.V.V.V.V.V.V.V.V.V.V.",
"V.V.V.V.V.V.V.V.V.V.V.V.V.V.~ X 4 8 6 < # < [ :.#.#.@.6 = + G 9.H 1.V.V.V.V.V.V.V.V.V.V.V.V.V.V.",
"V.V.V.V.V.V.V.V.V.V.V.V.V.V.m @ B  .2.8.X.d / :.#.:.[ , 7 % J 3.A &.V.V.V.V.V.V.V.V.V.V.V.V.V.V.",
"V.V.V.V.V.V.V.V.V.V.V.V.V.B.! 9 5.v.x.c.X.0 S @.@.:.Q @ 7 @ k ( >.m.V.V.V.V.V.V.V.V.V.V.V.V.V.V.",
"V.V.V.V.V.V.V.V.V.V.V.V.V.V.V.&.R r.4.X.' 9 < 6 g n q o * m i.V.V.V.V.V.V.V.V.V.V.V.V.V.V.V.V.V.",
"V.V.V.V.V.V.V.V.V.V.V.V.V.V.V.V.| w q 6 8 t i @ 7 r t 5 c N.V.V.V.V.V.V.V.V.V.V.V.V.V.V.V.V.V.V.",
"V.V.V.V.V.V.V.V.V.V.V.V.V.V.V.V.>.< p p p p p & t p a 8 C V.V.V.V.V.V.V.V.V.V.V.V.V.V.V.V.V.V.V.",
"V.V.V.V.V.V.V.V.V.V.V.V.V.V.V.V.{ 5 a p p p p & t p p 7 T V.V.V.V.V.V.V.V.V.V.V.V.V.V.V.V.V.V.V.",
"V.V.V.V.V.V.V.V.V.V.V.V.V.V.V.V.I 7 p p p p p & t a a 5 | V.V.V.V.V.V.V.V.V.V.V.V.V.V.V.V.V.V.V.",
"V.V.V.V.V.V.V.V.V.V.V.V.V.V.V.V.L 7 i i i p t + 5 5 7 6 e.V.V.V.V.V.V.V.V.V.V.V.V.V.V.V.V.V.V.V.",
"V.V.V.V.V.V.V.V.V.V.V.V.V.V.V.V.I % < < < * % 5 q 8 & T V.V.V.V.V.V.V.V.V.V.V.V.V.V.V.V.V.V.V.V.",
"V.V.V.V.V.V.V.V.V.V.V.V.V.V.V.N.x t p p i = 5 a p a 6 1.V.V.V.V.V.V.V.V.V.V.V.V.V.V.V.V.V.V.V.V.",
"V.V.V.V.V.V.V.V.V.V.V.V.V.V.V.p.q p p p p & t p p p 5 $.V.V.V.V.V.V.V.V.V.V.V.V.V.V.V.V.V.V.V.V.",
"V.V.V.V.V.V.V.V.V.V.V.V.V.V.V.&.5 a p p p 5 < i p p u 8 { B.V.V.V.V.V.V.V.V.V.V.V.V.V.V.V.V.V.V.",
"V.V.V.V.V.V.V.V.V.V.V.V.V.V.V.T q q r t t t * 6 t t t y m b.V.V.V.V.V.V.V.V.V.V.V.V.V.V.V.V.V.V.",
"V.V.V.V.V.V.V.V.V.V.V.V.V.V.V.M.e.&.~ L D I | e.q.q.e.i.N.V.V.V.V.V.V.V.V.V.V.V.V.V.V.V.V.V.V.V."
};
