/* XPM */
static char *_d69be0204a74a7fa9202f3e1f373eee4hspjmPQ1segEvCS[] = {
/* columns rows colors chars-per-pixel */
"48 48 191 2 ",
"   c #323725",
".  c #353A2B",
"X  c #393A2F",
"o  c #363731",
"O  c #363A35",
"+  c #3B3B35",
"@  c #373D39",
"#  c #3C3C3A",
"$  c #413E3B",
"%  c #37402F",
"&  c #3B4335",
"*  c #3D413C",
"=  c #3F4839",
"-  c #414636",
";  c #424C36",
":  c #43433D",
">  c #48463C",
",  c #444B3D",
"<  c #494A3E",
"1  c #465336",
"2  c #46523C",
"3  c #4C543E",
"4  c #4C5B3D",
"5  c #444542",
"6  c #494644",
"7  c #464A44",
"8  c #4B4B45",
"9  c #454748",
"0  c #4C464A",
"q  c #464B49",
"w  c #4C4C4A",
"e  c #524E4C",
"r  c #475143",
"t  c #4B5345",
"y  c #4C5C44",
"u  c #4D514C",
"i  c #4D5B48",
"p  c #505547",
"a  c #525D45",
"s  c #52534D",
"d  c #58564E",
"f  c #545B4C",
"g  c #585C4E",
"h  c #4E4F53",
"j  c #4E5351",
"k  c #4F5852",
"l  c #545453",
"z  c #595653",
"x  c #555A54",
"c  c #5A5B55",
"v  c #54575A",
"b  c #565D5B",
"n  c #5B5D5B",
"m  c #615F5C",
"M  c #536446",
"N  c #596845",
"B  c #55634C",
"V  c #5A644D",
"C  c #5F6D4D",
"Z  c #566254",
"A  c #5B6353",
"S  c #5D6A53",
"D  c #576358",
"F  c #5D625D",
"G  c #5D6A5C",
"H  c #5E7255",
"J  c #5C7059",
"K  c #60674D",
"L  c #606457",
"P  c #606B55",
"I  c #61635C",
"U  c #626B5C",
"Y  c #69695D",
"T  c #627255",
"R  c #687A57",
"E  c #63715C",
"W  c #6F7E5D",
"Q  c #717E5E",
"!  c #5C5E61",
"~  c #5A5D6C",
"^  c #605F61",
"/  c #5E6462",
"(  c #5E6964",
")  c #5E646A",
"_  c #5E6C69",
"`  c #5F7361",
"'  c #636563",
"]  c #696565",
"[  c #636B65",
"{  c #6A6B66",
"}  c #63656B",
"|  c #69656B",
" . c #656D6B",
".. c #6A6C6B",
"X. c #647363",
"o. c #6A7465",
"O. c #697A63",
"+. c #65726C",
"@. c #6B726C",
"#. c #6B796C",
"$. c #727F64",
"%. c #73766E",
"&. c #727C6C",
"*. c #656771",
"=. c #656D72",
"-. c #6B6D72",
";. c #666E78",
":. c #6A6B79",
">. c #667271",
",. c #6C7373",
"<. c #677871",
"1. c #6D7A73",
"2. c #6C747A",
"3. c #6E7A7A",
"4. c #727573",
"5. c #737B75",
"6. c #7B7C76",
"7. c #72757A",
"8. c #747B7B",
"9. c #7B7E7B",
"0. c #6E8268",
"q. c #73836C",
"w. c #79836D",
"e. c #748174",
"r. c #7B8375",
"t. c #7C8C73",
"y. c #75817B",
"u. c #7C827C",
"i. c #7D8A7B",
"p. c #818375",
"a. c #828D74",
"s. c #82837D",
"d. c #828B7C",
"f. c #8B8B7E",
"g. c #908E7D",
"h. c #849276",
"j. c #8B937D",
"k. c #6E7481",
"l. c #717582",
"z. c #767C84",
"x. c #7A7D83",
"c. c #7C7E89",
"v. c #768281",
"b. c #7C8482",
"n. c #7E8981",
"m. c #7E838B",
"M. c #828582",
"N. c #828A85",
"B. c #848B84",
"V. c #8B8B85",
"C. c #8A8D84",
"Z. c #898F85",
"A. c #828488",
"S. c #838689",
"D. c #828A89",
"F. c #858C89",
"G. c #8C8B89",
"H. c #8B8D8A",
"J. c #928F8B",
"K. c #869183",
"L. c #8B9186",
"P. c #8C9186",
"I. c #8F9786",
"U. c #8C9885",
"Y. c #86918B",
"T. c #8F9389",
"R. c #8D928B",
"E. c #89908C",
"W. c #929387",
"Q. c #939485",
"!. c #929686",
"~. c #91918D",
"^. c #92958C",
"/. c #98978C",
"(. c #99978F",
"). c #91988B",
"_. c #959A8C",
"`. c #949B8E",
"'. c #9B9B8D",
"]. c #868E93",
"[. c #8E8F91",
"{. c #8F9093",
"}. c #939691",
"|. c #929593",
" X c #949791",
".X c #9A9790",
"XX c #969992",
"oX c #989C93",
"OX c #9C9D95",
"+X c #9B9A98",
"@X c #A09C94",
/* pixels */
"9 q w 7 < , 5 5 : q 7 < 7 r u 6 $ # $ 6 8 6 $ + d m n I m x = 3 s s 7 > p c * # , w w q u q w 7 ",
"4.s.f.C.f.W.M.w o.0.0.W W &.q I 6.s.V.J.H.G.e 8 ~.~.W.Z.L.d.t &.I.R.W.f.oX+Xv [ N.C.L.R.`.^.N.l ",
"XX}.}.[.M.i.5.f r.q.q.W R &.c 9.@X{.A.A.7.7.c I E.N.4.@.5.[ , #.n.Z.y.1.5.x.j X.0.r.n.D.m.n.y.j ",
"i.2.k.k.2. .[ s +.X.O.W X.1.u [ x.c.l.} *...F c 1.>.;.2.<.[ s  ._ @.,.>.[  .u X.` 1.8.3.>.+.[ w ",
"v.2.z.z.l.,.} w X.#.e.e.5.-.e ' -.7.:.:.*.-.v l ,.>.:.4.+. .w [ (  .8.5. . .w / +.>.=.=.>.+.[ j ",
"[ n } ......n 7 [ { ' [ [ ' e z ^ ^ ^ ^ m m q 7 b b ! ! ' v 5 j v / ' / / F 9 j ) / ! ! / / v q ",
"F F s 6 6 6 8 w F c z z z z d 5 6 e c z e z c z j u w * # : w u w 5 : * * 9 5 q q w s w j b x F ",
"XX_.T.Y : p./.'.'.'.'.G.n p.M.M.J.XX.X] | ~.H.~.V.T.L.x q r.Z.L.T.~.s.u 8.F.H.H.L.K.F.l 7.|.}.XX",
"v.9.8.n q H.H.d.C.T.T.4.x u.5.M.H.E.9.m x.3.;.7.,.,.>.b v 5.8.8.b.u.4.x w.i.z.v.v.8.+.j 7.m.b.z.",
",.=.>.! w 1.3.3.7.2.,.Z , +.=.,.-.,.@.t @.4.;.l.7.7.1.s v @.z.m.z.+.[ r #.y.l.;.k.l. .h ,.,.2.2.",
"=...,.! s u.8.4.3.+.D Z i [ 2.7.4.2...w G <.:.7.8.7.,.f j ` X.1.2.>.U t +.>.=.) ~ }  .0 ..<.:.,.",
"' ! ! u u ..] [ [ S N 2 q [ ,. ./ m n a M G ! n ! F x u j k B D / I Z t Z D / ! ! / ! 9 n ( n ' ",
"# O $ 6 w , < 6 f N N 3 3 c I I c d d L T U [ U f r r q q 7 * , q 7 3 t w > 6 w q 8 6 6 6 9 $ $ ",
"e { V.~.J././.~.i.B q.j.!.!.oXOX@Xo.9.T.Y.E.K.t.X.i q.i.u.M.6.q.G t U r.r.p.6.8.! I M.M.s.6.4...",
"l x.C.N.G.F.H.N.#.y w.K.B.e.o.s.9.z @.5.y.2.1.O.C i 0.w.B.S.b.5.o.3 p._._.!.H.F.] | b.7.s.M.G.H.",
"l 4. .,.3.8.3.=.' t #.8.,.o.#.+.[ s o.+.4.=.+.G M M X.#.b.m.7.@.[ u r.u.m.S.v.8.^ ' ,.u.M.x.x.8.",
"t X. .>.7.8.7. .' e +.1.+.X.X...@.n @.+..... .[ M 4 X.#.8.3.2.,.' e 4.5.v.v.3.+.v m 4.b.M.M.b.9.",
"3 v ' ' { I ' ' ' w / I G U ' n F e b F m L n c 3 , D ....] ' I z 0 [ (  . .[ { z l ' { [ U U S ",
"r j j 6 5 6 w s e 8 e s p z ' ] ] m z 8 > 8 c L L L ' ! z 0 5 6 : 0 e w w w u e 8 $ # : , 1 1 1 ",
"h.K.Z.6.: 6..XP.V.V.C.B.c 9.OX+XOX.X!.%.s oXOX+XOXXX}.J.d { s.s.s.f.C.[ F C.C.!.G.d.r.d f a.a.h.",
"n.u.b.5.5 5.+.[ @.,.<.5.n b.u.b.b.6.%.[ F H.H.H.u.8.u.@.e s.H.T.!.R.E. .@.N.N.N.M.9.M.x Z C.u.i.",
"X.+.-.{ * [ [ (  .} >.@.F 9.,.x.S.b.5.n n M.M.4.3.z.m...w 4.y.y.u.8.3.n [ 1.8.x.2. .<.x Z X.` G ",
"%. .[ { * Z o.G F =.@.+.F ,.,.,.4.4.@.v m 4.%...2.l.7.] u 5.7.8.7.7.2.n [ #.,.,.*.}  .l c #.X.W ",
"I U E S & 7 Z A Z ( [ ' l / U n n c c e z [ I m ' ' ! s 8 ..=.4.:.-...l c  .] } | ' ! w q ' U A ",
"O @ ; & +     = 7 u s 8 l l q 8 5 8 s z I c z < t Y ..@.%.4.Y q l n Z z c F n h z l l l x c z 7 ",
"# 6.d.f.f.f.p.L 5 Z.P.~.^.T.N.w ] !.~.C.s.N.r.c Z T.F.u.u.s.6.w b.Y.d.C.E.F.D.l 4.V.Z.T.T.P.K.d.",
"8 U.K.u.r.b.s.^ u T.Z.N.F.F.F.v 6.S.7.+.} ( U V D y.+.(  .+./ w u.Y.N.b.y.1. .q 4.,.2.2.z.8.2.+.",
"u y...F  .>.>.l u N.7.=.,.,.,.l  . ._ +.} } [ x ' y.+. .,.>.( 5 3.v.3.2.2.=.( q 7.2.;.;.k.2.>.} ",
"j 4.,.@.@.5.8.F w B.,.;.-.,.4.s l { [ +.......s x <.[  . .,.[ 5 / / _ ;.=.) } u @. .) *.*.}  .} ",
"w n v j x F F j 5 ' ' ( '  .] e $ s z z l w 6 $ 5 k q w l v s + # 6 q j l u s w x v j j j z l e ",
"..I z u 8 : , 5 5 w l n l 6 8 8 < < 8 : + + w l n F x w $ > n Y Y Y A x 5 u x s s 7 8 s 0 0 c { ",
"}.}.}.J.Y 8 u.f.C.C.B.C.4.8 s.~.V.!./.f.: F ^.T.^.!.^.T.m l ^.W.f.p.T.H.n t.h.i.K.L.~.}.! 4.oXH.",
"4.-.-.] n e 9.9.4.-.} / ' d ^.5.{ &.9.%.7 [ n.y.1.8.u.5.l u N.n.+._ b.8.x #.e.e.e.<.y.1.x 4.@...",
"-...-./ ^ e 4.7.2.=.} ! n s n.4.,.4.[ [ < P 1.3.z.y.2.1.l w +._ _ _ >.X.i X.#.X.<.<.8.@.s o. .,.",
"%.4.....Y w ' } } } ^ } n z 8.,.,.,.X.[ y a G 0.b.b.8.y.l 8 [ +.y.5.#.[ r S J ` _  .( F u [ [ ,.",
"n v z z s w z c n ! ^ } n 8 / ] ' F G K 4 1 y x b / ' x 6 5 x x F F [ S 2 2 t k b x l w w z v c ",
"0 9 5 6 8 s s e e e w 8 8 t w 8 6 t < a K T S I F : o + 8 e 6 > - + * = & X & 5 5 * O # q w q w ",
"4.l s.J.!.!././..X6.w %.}.XX.XV.Z.M.z d.U.U.T.}.^.n : P.'.'.!.J.P.6.- Y t.w.r.i.u.F q y.M.M.u.6.",
"6.n H.G.9.7.4.o...{ w s.Y.Y.M.5.[ [ z 9.n.8.8.v.S.' l u.%.7.4.%...[ < i.d.d.u.u.b.F / u.b.D.s.9.",
"' z M.A.7.z.:.' [ ] w 6.O.q.e.o.[ ..l @.(  .8.].D.' l ..F 2.l.:. .I : 5.y.z.8.=.3.b x 1.,.4. ./ ",
"..e s.M.4.:.=.} ....s o.T H E X.+. .u {  .=.x.D.7.' w [ (  .,.=...c - o. .c.x. .[ b j +.U U S U ",
"! j c Z l v ! n m z t A V S B f s 8 5 u n z s l e e $ q u s c z x 6 + Z /  .| ' ' z j c A C V A ",
"I [ Y U x 6 w l s p z V M y 4 N L m v n q # 5 l z v x n u # q , + . + X + # 5 7 w q 8 * : 3 a c ",
"!.oX}.T.y.5 4.~./._._.j.a.S $.j.XXOX}.V.! 0 H.!.~.}.|.H.9.# 4.B.B.C.V.V.l v C.C.H.T.C.d.L C !. X",
"u.b.7.2.-.8 s.!.M.M.Z.i.q.g &.r.N.v.,.} x 6 4. ...,.7.@.' $ 7.8.8.m.b.5.x [ i.7.-.4.u.i.U P C.y.",
",.,.;.=...w 9.y.+.,.1.<.@.s 4.1.,.,. .} v 6 {  .8.3.8.+.' $ 6.1.7.v.8.@.u D  .;.:.;.1.#.c ' i.@.",
",...=.=...w [ o.%.5.7.,...e ..<.=.-.| -.c w [ ,.8.5.1.,.I 5 ,.[  .8.8. .u c =.:.:.7.o.[ l ' y.1.",
"n m m I n w x m ' ' ' [ ' l '  .' v c c 8 : n F I I I n l 5 ( [ [ +.( / u w F ' | | S U w q ! ! "
};
